<svg width="132" height="131" viewBox="0 0 132 131" fill="none" xmlns="http://www.w3.org/2000/svg">
<path d="M21.6 101.762L16.3 105.662L16.2 105.462L18 101.862L17.2 100.862L13.3 101.562L13.1 101.462L18.4 97.4625L17.6 96.4625L11.1 101.362L12.4 103.062L16.3 102.162L16.4 102.362L14.6 105.962L15.9 107.662L22.4 102.762L21.6 101.762Z" fill="white"/>
<path d="M16.2 93.9625L13.8 94.3625L12.3 91.4625L14 89.6625L13.3 88.3625L7.40002 94.5625L8.40002 96.5625L16.9 95.1625L16.2 93.9625ZM9.20002 95.2625L9.00002 94.8625L11.4 92.4625L12.6 94.6625L9.20002 95.2625Z" fill="white"/>
<path d="M12.3 85.8625L9.80002 86.7625L7.60002 85.6625L7.50002 85.4625L10.9 81.8625L10.5 80.4625L6.10002 84.9625L2.90002 83.4625L3.40002 84.9625L8.10002 87.2625L4.70002 88.5625L5.10002 89.7625L12.8 87.1625L12.3 85.8625Z" fill="white"/>
<path d="M9.00002 73.0625L7.80002 73.3625L8.70002 77.8625L6.40002 78.2625L5.70002 74.8625L4.50002 75.0625L5.20002 78.5625L3.10002 78.9625L2.30002 74.5625L1.00002 74.7625L2.20002 80.5625L10.1 78.9625L9.00002 73.0625Z" fill="white"/>
<path d="M8.60003 61.6625H7.40002L7.30002 66.2625H5.00002V62.7625H3.80002V66.2625H1.70002V61.7625H0.500024L0.400024 67.5625L8.60003 67.6625V61.6625Z" fill="white"/>
<path d="M9.40002 55.6625L1.70002 51.9625L1.50002 53.3625L7.90002 56.3625L7.80002 56.8625L0.800022 57.8625L0.600021 59.3625L9.00002 58.0625L9.40002 55.6625Z" fill="white"/>
<path d="M11.8 46.0625L10.7 45.6625L9.30002 50.1625L7.10002 49.4625L8.10002 46.0625L6.90002 45.7625L5.90002 49.0625L3.90002 48.5625L5.20002 44.2625L4.00002 43.8625L2.40002 49.4625L10.1 51.7625L11.8 46.0625Z" fill="white"/>
<path d="M13 43.2625L10.1 41.9625L10.9 40.2625C11 40.0625 11.1 39.8625 11.2 39.5625L14.6 39.8625L15.2 38.5625L11.4 38.2625C11.4 37.3625 10.9 36.6625 10 36.2625C8.60002 35.6625 7.40002 36.1625 6.60002 37.7625L5.10002 41.1625L12.5 44.5625L13 43.2625ZM9.00002 41.3625L6.70002 40.3625L7.60002 38.3625C8.10002 37.3625 8.70002 37.1625 9.40002 37.4625C10.1 37.7625 10.4 38.3625 9.90002 39.4625L9.00002 41.3625Z" fill="white"/>
<path d="M17.1 35.3625L17.9 34.1625L15.3 32.5625L12.6 27.3625L11.8 28.6625L13.6 32.1625L13.5 32.3625L9.50003 32.1625L8.70003 33.4625L14.6 33.7625L17.1 35.3625Z" fill="white"/>
<path d="M16.5 24.4625L21.8 28.9625L22.7 27.8625L17.4 23.3625L19.1 21.4625L18.2 20.6625L13.9 25.6625L14.8 26.3625L16.5 24.4625Z" fill="white"/>
<path d="M26.4 23.9625L24 21.2625L27.1 18.6625L29.4 21.2625L30.5 20.3625L25.1 14.2625L24.1 15.1625L26.2 17.6625L23.2 20.3625L21 17.8625L20 18.7625L25.4 24.8625L26.4 23.9625Z" fill="white"/>
<path d="M28.8411 11.6085L27.6936 12.4102L32.3324 19.0498L33.48 18.248L28.8411 11.6085Z" fill="white"/>
<path d="M36.5 16.3625L33.6 10.8625L33.8 10.7625L39.7 14.5625L41.4 13.6625L37.5 6.5625L36.4 7.1625L39.3 12.5625L39.1 12.6625L33.2 8.8625L31.5 9.7625L35.4 16.9625L36.5 16.3625Z" fill="white"/>
<path d="M46.8 11.7625C49.2 10.9625 49.5 8.86248 48.9 7.16248L48.6 6.36248L45.2 7.56248L45.6 8.66248L47.7 7.96248C48.1 9.16248 47.8 10.2625 46.4 10.7625C44.8 11.3625 43.6 10.3625 43.1 8.76248C42.6 7.16248 42.9 5.66248 44.4 5.16248C45.4 4.86248 46.1 5.06248 46.5 5.66248L47.8 5.16248C47 3.86248 45.6 3.46248 44 3.96248C41.6 4.76248 41 6.96248 41.8 9.26248C42.6 11.3625 44.4 12.5625 46.8 11.7625Z" fill="white"/>
<path d="M61.8 4.06249L58.2 4.46249L58.3 5.66249L60.5 5.36249C60.6 6.66249 60.1 7.56249 58.7 7.76249C57 7.96249 56.1 6.76249 55.9 5.06249C55.7 3.46249 56.3 2.06249 58 1.86249C59 1.76249 59.6 2.06249 59.9 2.76249L61.4 2.56249C60.9 1.16249 59.7 0.362486 57.9 0.562486C55.4 0.862486 54.3 2.76249 54.6 5.16249C54.9 7.56249 56.4 9.16249 58.9 8.86249C61.4 8.56249 62.2 6.66249 61.9 4.76249L61.8 4.06249Z" fill="white"/>
<path d="M70.9 2.96249C70.9 1.46249 70 0.462488 68.2 0.462488L64.5 0.362488L64.2 8.46249H65.6L65.7 5.26249L67.6 5.36249C67.8 5.36249 68.1 5.36249 68.3 5.36249L69.3 8.66249H70.7L69.6 5.06249C70.4 4.66249 70.8 3.96249 70.9 2.96249ZM67.9 4.06249L65.7 3.96249L65.8 1.46249L68 1.56249C69.1 1.56249 69.6 2.06249 69.5 2.86249C69.5 3.66249 69 4.16249 67.9 4.06249Z" fill="white"/>
<path d="M74.1 0.862488L72.6 8.86249L78.5 9.86249L78.8 8.66249L74.2 7.86249L74.6 5.56249L78.1 6.16249L78.3 4.96249L74.8 4.36249L75.2 2.26249L79.6 3.06249L79.8 1.86249L74.1 0.862488Z" fill="white"/>
<path d="M82.5 8.56248L85.6 9.56248V12.0625L87 12.4625V3.86248L84.9 3.16248L79.8 10.0625L81.1 10.4625L82.5 8.56248ZM85.2 4.76248L85.6 4.86248V8.26248L83.2 7.56248L85.2 4.76248Z" fill="white"/>
<path d="M90.5 14.2625L93.5 7.96247L95.8 9.06248L96.3 7.96247L90.4 5.16248L89.9 6.26248L92.2 7.36248L89.3 13.6625L90.5 14.2625Z" fill="white"/>
<path d="M99.7 16.9625L102.4 18.9625L101.6 21.2625L102.7 22.1625L105.4 14.0625L103.6 12.7625L96.6 17.6625L97.7 18.4625L99.7 16.9625ZM103.5 14.1625L103.9 14.4625L102.8 17.6625L100.8 16.1625L103.5 14.1625Z" fill="white"/>
<path d="M105.9 25.4625C107.7 27.2625 109.6 26.7625 111 25.4625L111.6 24.8625L109.1 22.2625L108.3 23.0625L109.8 24.6625C108.8 25.5625 107.8 25.6625 106.8 24.6625C105.6 23.4625 106 21.9625 107.2 20.7625C108.4 19.6625 109.9 19.2625 111.1 20.4625C111.8 21.1625 111.9 21.8625 111.6 22.5625L112.6 23.5625C113.4 22.3625 113.3 20.8625 112 19.5625C110.3 17.7625 108 18.0625 106.3 19.7625C104.5 21.4625 104.1 23.6625 105.9 25.4625Z" fill="white"/>
<path d="M109.9 29.5625L112.2 28.7625L114.2 31.4625L112.8 33.4625L113.6 34.5625L118.5 27.5625L117.2 25.7625L109.1 28.4625L109.9 29.5625ZM116.6 27.2625L116.9 27.6625L114.9 30.4625L113.4 28.4625L116.6 27.2625Z" fill="white"/>
<path d="M121.308 31.8834L114.323 35.9852L115.032 37.1925L122.017 33.0906L121.308 31.8834Z" fill="white"/>
<path d="M116.7 40.3625L122.3 37.8625L122.4 38.0625L118.2 43.6625L118.9 45.3625L126.4 42.0625L125.8 40.9625L120.2 43.4625L120.1 43.2625L124.4 37.5625L123.6 35.8625L116.2 39.1625L116.7 40.3625Z" fill="white"/>
<path d="M120.1 53.3625L120.8 53.1625L120.5 51.9625L129 49.8625L129.3 51.0625L130 50.9625L129.5 48.8625L119.6 51.2625L120.1 53.3625Z" fill="white"/>
<path d="M128.5 52.7625L128.9 55.4625L121.7 56.4625L121.9 57.4625L129 56.4625L129.4 59.0625L130.3 58.9625L129.4 52.6625L128.5 52.7625Z" fill="white"/>
<path d="M130.6 63.3625V61.6625H122.4V62.6625H129.4V62.8625L125.5 64.9625V66.0625L129.4 68.1625V68.3625H122.4V69.3625H130.6V67.6625L126.7 65.6625V65.3625L130.6 63.3625Z" fill="white"/>
<path d="M130.5 71.8625L130.4 73.1625L121.8 72.0625L121.9 70.8625L121.1 70.7625L120.9 72.9625L131.1 74.1625L131.3 71.9625L130.5 71.8625Z" fill="white"/>
<path d="M120.6 80.0625L126.9 81.9625L126.8 82.2625L122.8 82.7625L122.4 84.0625L125.3 86.8625V87.0625L119 85.0625L118.6 86.3625L126.4 88.7625L127 86.7625L124.1 84.0625V83.7625L128.1 83.2625L128.7 81.2625L121 78.7625L120.6 80.0625Z" fill="white"/>
<path d="M115 93.7625L116.1 94.2625L118.2 90.1625L120.3 91.1625L118.7 94.3625L119.8 94.8625L121.4 91.7625L123.2 92.6625L121.2 96.6625L122.3 97.2625L125 91.9625L117.7 88.3625L115 93.7625Z" fill="white"/>
<path d="M117.8 96.9625C115.8 95.5625 113.6 95.6625 112.1 97.7625C110.7 99.8625 111.6 101.662 113.1 102.762L113.8 103.262L115.8 100.262L114.8 99.5625L113.5 101.362C112.4 100.562 112.1 99.5625 112.9 98.3625C113.9 96.9625 115.4 97.0625 116.8 98.0625C118.2 98.9625 118.8 100.362 117.8 101.762C117.2 102.562 116.5 102.862 115.8 102.662L115 103.862C116.4 104.462 117.8 103.962 118.8 102.562C120.5 100.562 119.8 98.3625 117.8 96.9625Z" fill="white"/>
<path d="M108.8 102.362L110 104.462L107.7 106.862L105.5 105.862L104.5 106.862L112.3 110.462L113.8 108.862L109.7 101.362L108.8 102.362ZM112.3 108.662L112 108.962L108.9 107.462L110.6 105.662L112.3 108.662Z" fill="white"/>
<path d="M103.233 108.056L102.098 109.037L103.078 110.172L104.214 109.191L103.233 108.056Z" fill="white"/>
<path d="M99.7 110.962L100.4 113.262L97.7 115.162L95.8 113.662L94.6 114.462L101.4 119.662L103.2 118.362L100.8 110.162L99.7 110.962ZM101.4 118.062L98.7 115.962L100.8 114.562L101.8 117.862L101.4 118.062Z" fill="white"/>
<path d="M90.4 116.462C88.1 117.562 88.1 119.662 88.9 121.262L89.3 122.062L92.5 120.462L92 119.462L90 120.462C89.4 119.262 89.7 118.162 90.9 117.562C92.4 116.862 93.7 117.662 94.4 119.162C95.1 120.662 95 122.162 93.5 122.962C92.6 123.462 91.9 123.262 91.4 122.762L90.1 123.362C91 124.562 92.5 124.862 94.1 124.062C96.3 122.962 96.8 120.762 95.7 118.562C94.6 116.362 92.6 115.362 90.4 116.462Z" fill="white"/>
<path d="M79.8 120.562L80.2 121.762L84.6 120.362L85.3 122.562L81.9 123.662L82.3 124.862L85.6 123.762L86.3 125.762L82 127.162L82.4 128.262L88 126.562L85.5 118.762L79.8 120.562Z" fill="white"/>
<path d="M76.8 121.262L77.8 127.262L77.6 127.362L73.3 121.762L71.4 122.162L72.7 130.162L74 129.962L73 123.862L73.2 123.762L77.6 129.362L79.4 129.062L78.1 120.962L76.8 121.262Z" fill="white"/>
<path d="M65.7 122.162C63.9 122.162 62.7 123.262 62.4 124.762H63.8C64 123.862 64.7 123.362 65.7 123.362C67.4 123.362 68.1 124.662 68.2 126.362C68.2 127.962 67.5 129.362 65.8 129.362C64.8 129.362 64.3 128.962 64 128.262H62.6C62.9 129.662 64.1 130.662 65.8 130.662C68.2 130.662 69.6 128.862 69.6 126.462C69.6 123.862 68.2 122.162 65.7 122.162Z" fill="white"/>
<path d="M58.8 121.962L57.5 121.762L57.1 124.662L53.5 129.462L55 129.662L57.4 126.462H57.7L59.2 130.162L60.7 130.362L58.4 124.862L58.8 121.962Z" fill="white"/>
<path d="M47.2 118.662L48.3 118.962L45.8 127.262L44.6 126.962L44.4 127.662L46.4 128.262L49.4 118.462L47.4 117.862L47.2 118.662Z" fill="white"/>
<path d="M43.3 121.862C43.9 121.862 44.8 121.562 45.2 120.562C45.7 119.362 45 117.962 43.4 117.362C41.8 116.662 40.4 117.162 39.9 118.462C39.5 119.462 39.9 120.362 40.3 120.662L40.2 120.862C39.7 120.862 39 121.162 38.6 122.062C38.1 123.262 38.8 124.462 40.2 125.062C41.6 125.662 43 125.262 43.5 124.062C43.9 123.162 43.5 122.462 43.2 122.162L43.3 121.862ZM42.6 123.662C42.3 124.462 41.4 124.562 40.6 124.262C39.8 123.962 39.2 123.162 39.6 122.462C39.9 121.662 40.8 121.562 41.6 121.862C42.4 122.162 42.9 122.862 42.6 123.662ZM41.9 120.962C40.8 120.562 40.4 119.762 40.7 118.862C41.1 117.962 42 117.762 43 118.162C44.1 118.562 44.5 119.462 44.2 120.262C43.8 121.162 42.9 121.462 41.9 120.962Z" fill="white"/>
<path d="M32.6 119.862L39 115.562L38.1 115.062L31.7 119.362L31.2 120.362L35.6 122.762L36 122.062L32.5 120.062L32.6 119.862Z" fill="white"/>
<path d="M28.2 117.062L31.7 112.162L33.2 113.262L33.7 112.462L29.9 109.762L29.4 110.562L30.9 111.562L26.7 117.262L27.7 118.062H29.8L30.4 117.262L28.3 117.162L28.2 117.062Z" fill="white"/>
<path d="M28.5 108.162L29.4 108.962L29.9 108.362L28.3 106.962L21.7 114.862L23.3 116.262L23.8 115.662L22.9 114.862L28.5 108.162Z" fill="white"/>
</svg>
